<svg xmlns="http://www.w3.org/2000/svg" viewBox="0 0 124 164" fill="none"><title>Waterjet weaving machine</title><g stroke="#171e27" stroke-width="4" stroke-linecap="round" stroke-linejoin="round"><path d="M14 141h96M24 139V66h76v73"/><rect x="17" y="72" width="90" height="48" rx="7" fill="#202630"/><path d="M30 66V40h64v26"/><rect x="25" y="34" width="74" height="14" rx="7" fill="#202630"/><path d="M35 48v31m9-31v31m9-31v31m9-31v31m9-31v31m9-31v31m9-31v31" stroke="#d0d4d9" stroke-width="2"/><rect x="30" y="88" width="64" height="20" rx="4" fill="#aab4c0"/><path d="M38 91v14m8-14v14m8-14v14m8-14v14m8-14v14m8-14v14" stroke="#647889" stroke-width="2"/><path d="M30 95h64m-64 5h64" stroke="#647889" stroke-width="2"/><rect x="24" y="120" width="76" height="12" rx="6" fill="#202630"/><path d="M33 143v-11m58 11v-11"/><path d="M8 61h12l8 8-8 8H8z" fill="#202630"/><path d="M31 72h61" stroke="#e36a45" stroke-width="3"/><path d="m89 66 3-8 3 8" stroke="#dbe9f2" stroke-width="2"/><circle cx="20" cy="88" r="3" fill="#e36a45" stroke="none"/><circle cx="103" cy="88" r="3" fill="#e36a45" stroke="none"/><path d="M105 43v22"/><rect x="100" y="28" width="11" height="14" rx="2" fill="#202630"/><circle cx="105.5" cy="34" r="2" fill="#e36a45" stroke="none"/></g></svg>